<svg width="186" height="164" viewBox="0 0 186 164" fill="none" xmlns="http://www.w3.org/2000/svg">
<circle cx="93" cy="82" r="81" fill="#373737" stroke="#F6A693" stroke-width="2"/>
<path d="M67.5312 86.9688H70.0625C69.75 90.1562 68.8958 92.8438 67.5 95.0312C66.1042 97.1979 64.2292 98.8438 61.875 99.9688C59.5417 101.073 56.7917 101.625 53.625 101.625C51.1042 101.625 48.8125 101.146 46.75 100.188C44.7083 99.2083 42.9479 97.8333 41.4688 96.0625C40.0104 94.2708 38.8854 92.1354 38.0938 89.6562C37.3021 87.1771 36.9062 84.4375 36.9062 81.4375V75.0625C36.9062 72.0417 37.3021 69.3021 38.0938 66.8438C38.8854 64.3646 40.0104 62.2396 41.4688 60.4688C42.9479 58.6771 44.7188 57.3021 46.7812 56.3438C48.8646 55.3646 51.1875 54.875 53.75 54.875C56.8542 54.875 59.5729 55.4271 61.9062 56.5312C64.2396 57.6354 66.1042 59.2812 67.5 61.4688C68.8958 63.6354 69.75 66.3125 70.0625 69.5H67.5312C67.2188 66.8542 66.5 64.625 65.375 62.8125C64.2708 60.9792 62.75 59.5833 60.8125 58.625C58.875 57.6667 56.5208 57.1875 53.75 57.1875C51.5625 57.1875 49.5938 57.6146 47.8438 58.4688C46.0938 59.3021 44.5938 60.5104 43.3438 62.0938C42.0938 63.6562 41.125 65.5312 40.4375 67.7188C39.7708 69.8854 39.4375 72.3125 39.4375 75V81.4375C39.4375 84.0833 39.7708 86.5104 40.4375 88.7188C41.1042 90.9062 42.0521 92.7917 43.2812 94.375C44.5104 95.9375 46 97.1562 47.75 98.0312C49.5 98.8854 51.4583 99.3125 53.625 99.3125C56.3958 99.3125 58.7604 98.875 60.7188 98C62.6771 97.1042 64.2188 95.7396 65.3438 93.9062C66.4896 92.0729 67.2188 89.7604 67.5312 86.9688ZM109.031 86.9688H111.562C111.25 90.1562 110.396 92.8438 109 95.0312C107.604 97.1979 105.729 98.8438 103.375 99.9688C101.042 101.073 98.2917 101.625 95.125 101.625C92.6042 101.625 90.3125 101.146 88.25 100.188C86.2083 99.2083 84.4479 97.8333 82.9688 96.0625C81.5104 94.2708 80.3854 92.1354 79.5938 89.6562C78.8021 87.1771 78.4062 84.4375 78.4062 81.4375V75.0625C78.4062 72.0417 78.8021 69.3021 79.5938 66.8438C80.3854 64.3646 81.5104 62.2396 82.9688 60.4688C84.4479 58.6771 86.2188 57.3021 88.2812 56.3438C90.3646 55.3646 92.6875 54.875 95.25 54.875C98.3542 54.875 101.073 55.4271 103.406 56.5312C105.74 57.6354 107.604 59.2812 109 61.4688C110.396 63.6354 111.25 66.3125 111.562 69.5H109.031C108.719 66.8542 108 64.625 106.875 62.8125C105.771 60.9792 104.25 59.5833 102.312 58.625C100.375 57.6667 98.0208 57.1875 95.25 57.1875C93.0625 57.1875 91.0938 57.6146 89.3438 58.4688C87.5938 59.3021 86.0938 60.5104 84.8438 62.0938C83.5938 63.6562 82.625 65.5312 81.9375 67.7188C81.2708 69.8854 80.9375 72.3125 80.9375 75V81.4375C80.9375 84.0833 81.2708 86.5104 81.9375 88.7188C82.6042 90.9062 83.5521 92.7917 84.7812 94.375C86.0104 95.9375 87.5 97.1562 89.25 98.0312C91 98.8854 92.9583 99.3125 95.125 99.3125C97.8958 99.3125 100.26 98.875 102.219 98C104.177 97.1042 105.719 95.7396 106.844 93.9062C107.99 92.0729 108.719 89.7604 109.031 86.9688ZM148.281 89.9688C148.281 88.6146 148.052 87.4062 147.594 86.3438C147.135 85.2604 146.375 84.3021 145.312 83.4688C144.271 82.6146 142.896 81.8229 141.188 81.0938C139.479 80.3646 137.375 79.6562 134.875 78.9688C132.583 78.3438 130.51 77.6667 128.656 76.9375C126.823 76.1875 125.25 75.3333 123.938 74.375C122.646 73.4167 121.656 72.2812 120.969 70.9688C120.281 69.6354 119.938 68.0625 119.938 66.25C119.938 64.5 120.312 62.9271 121.062 61.5312C121.812 60.1354 122.865 58.9479 124.219 57.9688C125.594 56.9688 127.198 56.2083 129.031 55.6875C130.885 55.1458 132.906 54.875 135.094 54.875C138.156 54.875 140.833 55.4583 143.125 56.625C145.417 57.7708 147.208 59.3646 148.5 61.4062C149.792 63.4271 150.438 65.75 150.438 68.375H147.906C147.906 66.2292 147.375 64.3125 146.312 62.625C145.271 60.9375 143.792 59.6146 141.875 58.6562C139.979 57.6771 137.719 57.1875 135.094 57.1875C132.385 57.1875 130.083 57.6042 128.188 58.4375C126.312 59.2708 124.885 60.375 123.906 61.75C122.948 63.1042 122.469 64.5833 122.469 66.1875C122.469 67.3333 122.677 68.4062 123.094 69.4062C123.531 70.4062 124.24 71.3229 125.219 72.1562C126.219 72.9896 127.562 73.7812 129.25 74.5312C130.958 75.2604 133.083 75.9688 135.625 76.6562C137.958 77.2604 140.052 77.9479 141.906 78.7188C143.781 79.4688 145.385 80.3542 146.719 81.375C148.052 82.3958 149.073 83.6042 149.781 85C150.49 86.3958 150.844 88.0312 150.844 89.9062C150.844 91.7604 150.448 93.4167 149.656 94.875C148.865 96.3125 147.76 97.5417 146.344 98.5625C144.948 99.5625 143.302 100.323 141.406 100.844C139.531 101.365 137.51 101.625 135.344 101.625C133.365 101.625 131.375 101.385 129.375 100.906C127.396 100.427 125.583 99.6562 123.938 98.5938C122.292 97.5312 120.969 96.1354 119.969 94.4062C118.969 92.6771 118.469 90.5729 118.469 88.0938H121C121 90.2188 121.438 92.0104 122.312 93.4688C123.188 94.9062 124.333 96.0521 125.75 96.9062C127.167 97.7604 128.708 98.375 130.375 98.75C132.062 99.125 133.719 99.3125 135.344 99.3125C137.885 99.3125 140.125 98.9271 142.062 98.1562C144.021 97.3646 145.542 96.2708 146.625 94.875C147.729 93.4583 148.281 91.8229 148.281 89.9688Z" fill="#F6A693"/>
</svg>
